<?xml version="1.0" encoding="UTF-8"?>
<svg id="Layer_1" data-name="Layer 1" xmlns="http://www.w3.org/2000/svg" width="122" height="122" viewBox="0 0 122 122">
  <defs>
    <style>
      .cls-1 {
        fill: #007ab4;
      }
    </style>
  </defs>
  <path class="cls-1" d="M61,122C27.36,122,0,94.64,0,61S27.36,0,61,0s61,27.36,61,61-27.36,61-61,61ZM61,2C28.47,2,2,28.47,2,61s26.47,59,59,59,59-26.47,59-59S93.53,2,61,2Z"/>
  <path id="Union_6" data-name="Union 6" class="cls-1" d="M55.2,88.16c-3.08-.01-5.58-2.51-5.59-5.59v-8.98h-10.29c-3.09,0-5.6-2.5-5.62-5.59v-19.48c.02-3.08,2.51-5.56,5.59-5.57h27.55c3.07,0,5.56,2.49,5.56,5.57h0v9h10.3c3.09,.02,5.58,2.51,5.6,5.6v19.46c-.01,3.09-2.51,5.58-5.6,5.59h-27.5Zm-3.54-5.59c-.02,1.94,1.55,3.53,3.49,3.54h27.55c1.95-.01,3.52-1.6,3.52-3.54v-1.73H51.67v1.73Zm0-3.78h34.56v-15.76c0-1.96-1.59-3.56-3.55-3.57h-10.27v8.53c0,3.08-2.49,5.58-5.56,5.59h-15.18v5.2Zm-15.89-30.3v19.51c0,1.95,1.56,3.53,3.5,3.54h27.57c1.94,.05,3.56-1.47,3.62-3.41v-19.62c.03-1.97-1.54-3.6-3.52-3.63h-27.63c-1.97,.02-3.56,1.62-3.55,3.6h0Zm40.05,23.44c-.09-.56,.28-1.08,.84-1.17h0c.05,0,.11,0,.17,0s.11,0,.16,0h4.09c.55-.02,1.01,.42,1.03,.97v.05c-.02,.55-.47,1-1.03,1h-4.09c-.05,0-.11,.01-.16,0-.5,0-.93-.37-1.01-.86h0Zm1.17-5.03c-.56,0-1.01-.44-1.03-1,.02-.56,.47-1.01,1.03-1.03h4.09c.57,0,1.03,.46,1.03,1.03,0,.57-.46,1.03-1.03,1.03l-4.09-.03Zm-12.13-.45h-4.02c-.55,.09-1.08-.28-1.17-.83h0c-.09-.57,.28-1.09,.83-1.18h.01c.05,0,.11-.01,.17-.01,.05,0,.11,0,.16,.01h4.02c.56-.09,1.08,.29,1.17,.85,.09,.56-.29,1.08-.85,1.17h0c-.05,0-.11,.02-.17,.02-.05,0-.11,0-.16-.02h0Zm-9.79,0h-4.02c-.56,.09-1.09-.29-1.18-.84h0c-.09-.56,.29-1.09,.85-1.18h0c.05,0,.11,0,.17-.01,.05,0,.11,0,.16,.01h4.02c.56-.09,1.08,.29,1.17,.85,.09,.56-.29,1.08-.85,1.17-.05,0-.11,.02-.17,.02-.05,0-.11,0-.16-.02h0Zm-9.79-8.97h-1.5c-1.97-.17-3.42-1.9-3.25-3.87h0c.15-1.73,1.52-3.1,3.25-3.25h1.5c.1-.01,.2-.02,.31-.02,1.85,0,3.39,1.42,3.56,3.26,.17,1.97-1.28,3.7-3.25,3.87h0c-.1,0-.2,0-.31,0s-.2,0-.3-.01h0Zm-3.02-3.57c0,.84,.69,1.52,1.53,1.52h1.5c.84,0,1.52-.68,1.52-1.52h0c0-.84-.68-1.53-1.52-1.53h-1.5c-.84,0-1.52,.68-1.52,1.52h0Zm36.95-.36v-1.26h-.29c-1.46-.41-2.64-1.48-3.2-2.89-.21-.52,.03-1.12,.55-1.34h.39c.41,0,.79,.25,.95,.63,.44,1.06,1.48,1.75,2.62,1.73,1.45,.13,2.72-.94,2.85-2.38,0-.08,.01-.16,.01-.25,0-1.26-1.03-2.07-3.07-2.63-4.04-.89-4.65-3.23-4.65-4.54,0-2.11,1.48-3.94,3.54-4.38h.32v-1.21c-.09-.55,.28-1.08,.83-1.17h.01c.05-.01,.11-.02,.17-.01,.5,0,.93,.37,1.01,.86,.02,.11,.02,.22,0,.32v1.29h.29c1.44,.39,2.62,1.43,3.2,2.8,.11,.27,.11,.57,0,.84-.1,.26-.31,.46-.58,.55-.11,.03-.23,.03-.34,0-.42,0-.8-.24-.97-.62-.44-1.07-1.48-1.76-2.63-1.76-1.44-.12-2.71,.96-2.83,2.4,0,.08-.01,.15-.01,.22,0,1.23,1,2.07,3.07,2.63,4.04,.89,4.65,3.2,4.65,4.52,0,2.11-1.48,3.94-3.54,4.38h-.32v1.23c0,.58-.47,1.05-1.05,1.05-.56-.01-1-.47-1-1.02h0Z"/>
</svg>