<?xml version="1.0" encoding="UTF-8"?>
<svg id="Layer_1" data-name="Layer 1" xmlns="http://www.w3.org/2000/svg" width="122" height="122" viewBox="0 0 122 122">
  <defs>
    <style>
      .cls-1 {
        fill: #007ab4;
      }
    </style>
  </defs>
  <g>
    <path class="cls-1" d="M49.15,62.25h-4.37c-1.18,0-2.17-.99-2.17-2.17v-4.36c0-1.17,.99-2.17,2.17-2.17h4.37c1.18,0,2.17,.99,2.17,2.17v4.36c0,1.18-.99,2.17-2.17,2.17Zm-4.37-6.7c-.07,0-.17,.1-.17,.17v4.36c0,.07,.1,.17,.17,.17h4.37c.07,0,.17-.1,.17-.17v-4.36c0-.07-.1-.17-.17-.17h-4.37Z"/>
    <path class="cls-1" d="M59.35,62.17h-4.36c-1.18,0-2.17-.99-2.17-2.17v-4.36c0-1.18,.99-2.17,2.17-2.17h4.36c1.18,0,2.17,.99,2.17,2.17v4.36c0,1.17-.99,2.17-2.17,2.17Zm-4.36-6.7c-.07,0-.17,.1-.17,.17v4.36c0,.07,.1,.17,.17,.17h4.36c.07,0,.17-.1,.17-.17v-4.36c0-.07-.1-.17-.17-.17h-4.36Z"/>
    <path class="cls-1" d="M69.46,62.17h-4.36c-1.18,0-2.17-.99-2.17-2.17v-4.36c0-1.18,.99-2.17,2.17-2.17h4.44c1.18,0,2.17,.99,2.17,2.17v1h-.08v3.36c0,1.17-.99,2.17-2.17,2.17Zm-4.36-6.7c-.07,0-.17,.1-.17,.17v4.36c0,.07,.1,.17,.17,.17h4.36c.07,0,.17-.1,.17-.17v-4.49s-.06-.04-.09-.04h-4.44Z"/>
    <path class="cls-1" d="M49.15,73.13h-4.37c-1.18,0-2.17-.99-2.17-2.17v-4.36c0-1.18,.99-2.17,2.17-2.17h4.37c1.18,0,2.17,.99,2.17,2.17v4.36c0,1.18-.99,2.17-2.17,2.17Zm-4.37-6.7c-.07,0-.17,.1-.17,.17v4.36c0,.07,.1,.17,.17,.17h4.37c.07,0,.17-.1,.17-.17v-4.36c0-.07-.1-.17-.17-.17h-4.37Z"/>
    <path class="cls-1" d="M59.35,73.13h-4.36c-1.18,0-2.17-.99-2.17-2.17v-4.36c0-1.18,.99-2.17,2.17-2.17h4.36c1.18,0,2.17,.99,2.17,2.17v4.36c0,1.18-.99,2.17-2.17,2.17Zm-4.36-6.7c-.07,0-.17,.1-.17,.17v4.36c0,.07,.1,.17,.17,.17h4.36c.07,0,.17-.1,.17-.17v-4.36c0-.07-.1-.17-.17-.17h-4.36Z"/>
    <path class="cls-1" d="M69.46,73.13h-4.36c-1.18,0-2.17-.99-2.17-2.17v-4.36c0-1.18,.99-2.17,2.17-2.17h4.44c.6,0,1.18,.26,1.59,.72,.37,.42,.55,.96,.5,1.5v4.31c0,1.18-.99,2.17-2.17,2.17Zm-4.36-6.7c-.07,0-.17,.1-.17,.17v4.36c0,.07,.1,.17,.17,.17h4.36c.07,0,.17-.1,.17-.17v-4.48s-.05-.04-.09-.04h-4.44Z"/>
    <path class="cls-1" d="M38.95,84.08h-4.36c-1.18,0-2.17-.99-2.17-2.17v-4.36c0-1.17,.99-2.17,2.17-2.17h4.36c1.26,0,2.17,.91,2.17,2.17v4.36c0,1.18-.99,2.17-2.17,2.17Zm-4.36-6.7c-.07,0-.17,.1-.17,.17v4.36c0,.07,.1,.17,.17,.17h4.36c.07,0,.17-.1,.17-.17v-4.36c0-.15-.02-.17-.17-.17h-4.36Z"/>
    <path class="cls-1" d="M38.95,73.13h-4.36c-1.18,0-2.17-.99-2.17-2.17v-4.36c0-1.18,.99-2.17,2.17-2.17h4.36c1.18,0,2.17,.99,2.17,2.17v4.36c0,1.18-.99,2.17-2.17,2.17Zm-4.36-6.7c-.07,0-.17,.1-.17,.17v4.36c0,.07,.1,.17,.17,.17h4.36c.07,0,.17-.1,.17-.17v-4.36c0-.07-.1-.17-.17-.17h-4.36Z"/>
    <path class="cls-1" d="M59.35,84.08h-4.36c-1.18,0-2.17-.99-2.17-2.17v-4.36c0-1.17,.99-2.17,2.17-2.17h4.36c1.22,0,2.17,.95,2.17,2.17v4.36c0,1.18-.99,2.17-2.17,2.17Zm-4.36-6.7c-.07,0-.17,.1-.17,.17v4.36c0,.07,.1,.17,.17,.17h4.36c.07,0,.17-.1,.17-.17v-4.36c0-.14-.09-.17-.17-.17h-4.36Z"/>
    <path class="cls-1" d="M49.15,84.08h-4.37c-1.18,0-2.17-.99-2.17-2.17v-4.36c0-1.17,.99-2.17,2.17-2.17h4.37c1.22,0,2.17,.95,2.17,2.17v4.36c0,1.18-.99,2.17-2.17,2.17Zm-4.37-6.7c-.07,0-.17,.1-.17,.17v4.36c0,.07,.1,.17,.17,.17h4.37c.07,0,.17-.1,.17-.17v-4.36c0-.14-.09-.17-.17-.17h-4.37Z"/>
    <path class="cls-1" d="M79.66,62.25h-4.37c-1.18,0-2.17-.99-2.17-2.17v-4.36c0-1.17,.99-2.17,2.17-2.17h4.37c1.18,0,2.17,.99,2.17,2.17v4.36c0,1.18-.99,2.17-2.17,2.17Zm-4.37-6.7c-.07,0-.17,.1-.17,.17v4.36c0,.07,.1,.17,.17,.17h4.37c.07,0,.17-.1,.17-.17v-4.36c0-.07-.1-.17-.17-.17h-4.37Z"/>
    <path class="cls-1" d="M89.57,51.35H24.75v-11.98c0-4.33,3.53-7.85,7.86-7.85h6.72v-3.28c0-1.96,1.54-3.49,3.49-3.49h3.9c1.96,0,3.49,1.53,3.49,3.49v3.28h13.9v-3.28c0-1.96,1.54-3.49,3.49-3.49h3.9c1.96,0,3.49,1.53,3.49,3.49v3.28h6.72c4.33,0,7.86,3.52,7.86,7.85v11.98Zm-62.82-2h60.82v-9.98c0-3.23-2.63-5.85-5.86-5.85h-8.72v-5.28c0-.85-.64-1.49-1.49-1.49h-3.9c-.85,0-1.49,.64-1.49,1.49v5.28h-17.9v-5.28c0-.85-.64-1.49-1.49-1.49h-3.9c-.85,0-1.49,.64-1.49,1.49v5.28h-8.72c-3.23,0-5.86,2.62-5.86,5.85v9.98Z"/>
    <path class="cls-1" d="M78.44,88.41c-.29,0-.56-.12-.75-.33-.18-.2-.27-.46-.26-.73s.13-.52,.33-.7l4.36-3.94v-2.57c0-.56,.45-1.01,1.01-1.01s1.01,.45,1.01,1.01v3.02c0,.29-.12,.56-.33,.75l-4.7,4.24c-.19,.17-.43,.26-.68,.26Z"/>
    <path class="cls-1" d="M88.57,66.79c-.55,0-1-.45-1-1v-15.44c0-.55,.45-1,1-1s1,.45,1,1v15.44c0,.55-.45,1-1,1Z"/>
    <path class="cls-1" d="M24.75,90.19V50.36c0-.55,.45-1,1-1s1,.45,1,1v37.83l38.97-.02h0c.55,0,1,.45,1,1s-.45,1-1,1l-40.97,.03Z"/>
    <path class="cls-1" d="M83.14,96.25c-7.23,0-13.11-5.87-13.11-13.09s5.88-13.1,13.11-13.1,13.11,5.87,13.11,13.1-5.88,13.09-13.11,13.09Zm0-5.04c.56,0,1.01,.45,1.01,1.01v1.97l.57-.08c4.82-.69,8.68-4.55,9.38-9.37l.08-.57h-1.97c-.56,0-1.01-.45-1.01-1.01s.45-1.01,1.01-1.01h1.97l-.08-.57c-.7-4.82-4.55-8.67-9.38-9.37l-.57-.08v1.97c0,.56-.45,1.01-1.01,1.01s-1.01-.45-1.01-1.01v-1.97l-.57,.08c-4.82,.69-8.68,4.55-9.38,9.37l-.08,.57h1.97c.56,0,1.01,.45,1.01,1.01s-.45,1.01-1.01,1.01h-1.97l.08,.57c.7,4.82,4.55,8.67,9.38,9.37l.57,.08v-1.97c0-.56,.45-1.01,1.01-1.01Z"/>
  </g>
  <path class="cls-1" d="M61,122C27.36,122,0,94.64,0,61S27.36,0,61,0s61,27.36,61,61-27.36,61-61,61ZM61,2C28.47,2,2,28.47,2,61s26.47,59,59,59,59-26.47,59-59S93.53,2,61,2Z"/>
</svg>