<?xml version="1.0" encoding="UTF-8"?>
<svg id="Layer_1" data-name="Layer 1" xmlns="http://www.w3.org/2000/svg" width="122" height="122" viewBox="0 0 122 122">
  <defs>
    <style>
      .cls-1 {
        fill: #007ab4;
      }
    </style>
  </defs>
  <path class="cls-1" d="M61,122C27.36,122,0,94.64,0,61S27.36,0,61,0s61,27.36,61,61-27.36,61-61,61ZM61,2C28.47,2,2,28.47,2,61s26.47,59,59,59,59-26.47,59-59S93.53,2,61,2Z"/>
  <path class="cls-1" d="M63.32,53.92v.59h-4.64v-.59c0-.55-.45-1-1-1s-1,.45-1,1v.59c-.55,0-1,.45-1,1s.45,1,1,1v.59c0,.55,.45,1,1,1s1-.45,1-1v-.59h4.64v.59c0,.55,.45,1,1,1s1-.45,1-1v-.59c.55,0,1-.45,1-1s-.45-1-1-1v-.59c0-.55-.45-1-1-1s-1,.45-1,1m-9.98-13c-.1,.55,.27,1.08,.82,1.17h0c.92,.24,1.75,.72,2.41,1.4,1.1,1.15,2.61,1.82,4.2,1.87h.44c1.59-.05,3.1-.72,4.2-1.87,.66-.68,1.49-1.16,2.41-1.4,.54-.11,.89-.64,.77-1.18-.11-.54-.64-.89-1.18-.77h0c-1.26,.29-2.42,.93-3.34,1.84-1.51,1.71-4.13,1.86-5.84,.35-.14-.12-.26-.25-.38-.39-.92-.91-2.08-1.55-3.34-1.84-.06,0-.12-.01-.18-.02-.49,0-.92,.35-1,.84m13.26,20.09c1.69,0,3.06-1.37,3.07-3.06v-1.37h11.19c-.67,2.29-1.48,4.69-2.33,7.13-2.11,6.08-4.3,12.47-4.88,19.08-.13,1.39-.8,2.22-1.8,2.32-1.71,0-3.2-1.18-3.61-2.84-.17-.89-.28-1.8-.31-2.71-.33-4.45-.93-11.89-6.93-11.89s-6.6,7.44-6.93,11.87c-.03,.92-.14,1.83-.31,2.73-.39,1.68-1.89,2.86-3.61,2.86-1.04-.1-1.67-.93-1.8-2.32-.58-6.61-2.77-12.95-4.88-19.08-.85-2.46-1.66-4.86-2.33-7.15h11.19v1.37c0,1.69,1.38,3.06,3.07,3.06h11.2Zm0-8.87c.59,0,1.06,.46,1.07,1.05h0v4.76c0,.59-.48,1.06-1.06,1.06h-11.21c-.59,0-1.06-.46-1.07-1.05h0v-4.76c0-.59,.47-1.06,1.06-1.06h11.21Zm12.95-11.98c2.06,2.25,3.09,5.25,2.85,8.29h0c-.11,2.07-.45,4.13-1,6.13h-11.74v-1.38c0-1.69-1.38-3.06-3.07-3.06h-11.2c-1.69,0-3.07,1.37-3.07,3.06v1.38h-11.72c-.55-2-.89-4.06-1-6.13-.24-3.04,.79-6.04,2.85-8.29,2.2-2.15,5.17-3.33,8.24-3.29,1.91-.01,3.78,.52,5.4,1.53,1.47,.92,3.16,1.43,4.9,1.47,1.74-.05,3.43-.55,4.9-1.47,1.62-1.01,3.49-1.54,5.4-1.53,3.08-.04,6.05,1.14,8.25,3.29m-8.25-5.29c-2.22,0-4.4,.61-6.3,1.76-1.2,.77-2.58,1.19-4,1.24-1.42-.05-2.8-.47-4-1.24-1.9-1.15-4.08-1.76-6.3-1.76-3.62-.03-7.11,1.37-9.7,3.89-2.45,2.63-3.69,6.17-3.42,9.75,.1,2.05,.4,4.08,.92,6.07h-1c-.55,0-1,.45-1,1s.45,1,1,1h1.6c.71,2.5,1.61,5.12,2.53,7.8,2.07,6.02,4.22,12.24,4.78,18.61,.25,2.8,2.02,3.97,3.59,4.13,.06,0,.12,0,.19,0h.07c.06,0,.13,0,.19,0,2.5-.13,4.63-1.86,5.27-4.28,.23-1.04,.36-2.09,.4-3.15,.37-5,1.07-10,4.93-10s4.56,4.92,4.93,10c.04,1.06,.17,2.11,.4,3.15,.64,2.42,2.77,4.15,5.27,4.28,.06,0,.12,0,.19,0h.07c.06,0,.13,0,.19,0,1.59-.13,3.34-1.33,3.59-4.13,.56-6.37,2.71-12.61,4.78-18.61,.92-2.68,1.82-5.3,2.53-7.8h1.5c.55,0,1-.45,1-1h0c0-.55-.45-1-1-1h-1c.52-1.99,.82-4.02,.92-6.07,.27-3.58-.97-7.12-3.41-9.75-2.56-2.49-6-3.89-9.57-3.89h-.13"/>
</svg>