<?xml version="1.0" encoding="UTF-8"?>
<svg id="Layer_1" data-name="Layer 1" xmlns="http://www.w3.org/2000/svg" width="122" height="122" viewBox="0 0 122 122">
  <defs>
    <style>
      .cls-1 {
        fill: #007ab4;
      }
    </style>
  </defs>
  <path class="cls-1" d="M61,122C27.36,122,0,94.64,0,61S27.36,0,61,0s61,27.36,61,61-27.36,61-61,61ZM61,2C28.47,2,2,28.47,2,61s26.47,59,59,59,59-26.47,59-59S93.53,2,61,2Z"/>
  <g>
    <path class="cls-1" d="M75.03,97h-28.07c-8.67,0-18.49,0-18.49-11.84,0-8.24,4.58-15.67,11.96-19.4,1.25-.61,2.62-1.08,3.92-1.52,.91-.26,1.79-.44,2.66-.57,1.08-.16,2.1,.42,2.5,1.42,1.04,2.58,6.44,7.39,11.15,11.04,.19,.15,.46,.15,.66,0,2.24-1.74,9.67-7.65,11.11-10.94,.47-1.06,1.58-1.67,2.71-1.49,.69,.11,1.38,.26,2.07,.43,1.49,.44,3.03,1.06,4.07,1.5l.05,.02c7.52,3.69,12.19,11.17,12.19,19.52,0,11.84-9.82,11.84-18.49,11.84Zm-24.75-2.01h24.75c10.26,0,16.49-.66,16.49-9.83,0-7.57-4.23-14.35-11.04-17.71-.99-.42-2.45-1-3.8-1.41-.59-.15-1.22-.29-1.85-.39-.24-.04-.46,.09-.57,.32-1.58,3.61-8.72,9.4-11.72,11.71-.91,.71-2.19,.71-3.1,0-3.06-2.37-10.33-8.27-11.79-11.87-.05-.13-.19-.21-.35-.19-.79,.12-1.59,.29-2.37,.51-1.19,.4-2.49,.86-3.62,1.4-6.68,3.38-10.85,10.13-10.85,17.61,0,9.18,6.23,9.84,16.49,9.84h3.32Z"/>
    <path class="cls-1" d="M61,68.22c-10.47,0-18.35-15.12-18.35-24.92s8.23-18.3,18.35-18.3,18.35,8.21,18.35,18.3-7.88,24.92-18.35,24.92Zm0-41.21c-9.01,0-16.35,7.31-16.35,16.3,0,4.62,1.88,10.37,4.92,14.99,3.3,5.04,7.47,7.93,11.43,7.93s8.13-2.89,11.43-7.93c3.03-4.62,4.92-10.37,4.92-14.99,0-8.99-7.34-16.3-16.35-16.3Z"/>
    <path class="cls-1" d="M74.71,91.29c-.55,0-1-.45-1-1v-10.97c0-.55,.45-1,1-1s1,.45,1,1v10.97c0,.55-.45,1-1,1Z"/>
    <path class="cls-1" d="M80.19,85.81h-10.97c-.55,0-1-.45-1-1s.45-1,1-1h10.97c.55,0,1,.45,1,1s-.45,1-1,1Z"/>
  </g>
</svg>