<svg id="Layer_1" data-name="Layer 1" xmlns="http://www.w3.org/2000/svg" width="314" height="72" viewBox="0 0 314 72">
  <defs>
    <style>
      .cls-1, .cls-2 {
        fill: #125191;
      }

      .cls-1 {
        fill-rule: evenodd;
      }
    </style>
  </defs>
  <title>Artboard 1</title>
  <path class="cls-1" d="M43,25.92a3,3,0,0,1,2.1.88.79.79,0,0,0,.55.23.76.76,0,0,0,.76-.76.79.79,0,0,0-.23-.55A4.28,4.28,0,0,0,43,24.46a4.85,4.85,0,1,0,0,9.7,5.06,5.06,0,0,0,3.41-1.26,1.29,1.29,0,0,0,.45-1.07v-2A.79.79,0,0,0,46,29H43.1a.73.73,0,1,0,0,1.45h2.15v1.46A3.46,3.46,0,0,1,43,32.7a3.22,3.22,0,0,1-3.23-3.4A3.21,3.21,0,0,1,43,25.92Zm11,.14a.73.73,0,1,0,0-1.45H49.12a.79.79,0,0,0-.87.87v7.63a.79.79,0,0,0,.87.87H54a.73.73,0,1,0,0-1.45H49.89V29.94h4a.74.74,0,0,0,.73-.74.73.73,0,0,0-.73-.71h-4V26.06Zm2.81,8a.82.82,0,0,0,.81-.82V27.15l4.65,6.49a.94.94,0,0,0,.81.42,1,1,0,0,0,1-1V25.36a.82.82,0,1,0-1.64,0v5.9L57.94,25a1.07,1.07,0,0,0-.87-.45A1.08,1.08,0,0,0,56,25.61v7.63A.83.83,0,0,0,56.82,34.06Zm12,0a.82.82,0,0,0,.81-.82V26.06H71.8a.73.73,0,1,0,0-1.45h-6a.73.73,0,1,0,0,1.45H68v7.18A.83.83,0,0,0,68.8,34.06Zm5.51-9.53a.83.83,0,0,0-.83.83v7.75a.79.79,0,0,0,.87.87H78.6a.73.73,0,1,0,0-1.45H75.13V25.36A.83.83,0,0,0,74.31,24.53Zm11.84,1.53a.73.73,0,1,0,0-1.45H81.26a.78.78,0,0,0-.87.87v7.63a.78.78,0,0,0,.87.87h4.89a.73.73,0,1,0,0-1.45H82V29.94h4a.74.74,0,0,0,.73-.74.72.72,0,0,0-.73-.71H82V26.06ZM42,37.86H39.39a.79.79,0,0,0-.87.87v7.63a.79.79,0,0,0,.87.87H42a4.69,4.69,0,1,0,0-9.37Zm0,7.92H40.17V39.31H42a3,3,0,0,1,3.22,3.24A3.08,3.08,0,0,1,42,45.78Zm6.09.58a.79.79,0,0,0,.87.87h4.9a.73.73,0,1,0,0-1.45H49.74V43.19h4a.74.74,0,0,0,.73-.74.72.72,0,0,0-.73-.71h-4V39.31h4.12a.73.73,0,1,0,0-1.45H49a.79.79,0,0,0-.87.87Zm7.72.13a.83.83,0,0,0,1.65,0V40.4l4.64,6.49a1,1,0,0,0,.81.42,1,1,0,0,0,1-1V38.61a.82.82,0,1,0-1.64,0v5.9l-4.52-6.28a1,1,0,0,0-.87-.45,1.08,1.08,0,0,0-1.08,1.08Zm9.92-7.18h2.19v7.18a.83.83,0,0,0,.83.82.82.82,0,0,0,.81-.82V39.31h2.19a.73.73,0,1,0,0-1.45h-6a.73.73,0,1,0,0,1.45Zm5.94,7.16a.84.84,0,0,0,.84.84.82.82,0,0,0,.77-.53l.49-1.35h4.49l.49,1.35a.82.82,0,0,0,.77.53.84.84,0,0,0,.84-.84.88.88,0,0,0-.07-.29L77.36,38.7a1.44,1.44,0,0,0-2.69,0l-2.93,7.48A.88.88,0,0,0,71.67,46.47ZM76,39.25,77.74,44H74.29Zm6.29-1.47a.83.83,0,0,0-.82.83v7.75a.78.78,0,0,0,.87.87h4.25a.73.73,0,1,0,0-1.45H83.13V38.61A.83.83,0,0,0,82.31,37.78Zm9.6,20.85c-.36-.09-.66-.17-.66-.4s.2-.37.55-.37a1.32,1.32,0,0,1,.7.21.2.2,0,0,0,.14,0,.24.24,0,0,0,.24-.24.22.22,0,0,0-.11-.2,1.58,1.58,0,0,0-.92-.28c-.7,0-1.14.38-1.14.88s.57.77,1.06.9.69.17.69.44-.17.41-.61.41a1.27,1.27,0,0,1-.77-.26.27.27,0,0,0-.15,0,.25.25,0,0,0-.25.25.26.26,0,0,0,.1.2,1.69,1.69,0,0,0,1,.33c.81,0,1.16-.43,1.16-.93C93,58.91,92.4,58.76,91.91,58.63Zm4.24-1.22a.43.43,0,0,0-.4.27L95,59.45l-.72-1.77a.43.43,0,0,0-.4-.27.43.43,0,0,0-.43.43v2.35a.26.26,0,0,0,.26.27.27.27,0,0,0,.26-.27v-2l.89,2.2a.14.14,0,0,0,.14.1.16.16,0,0,0,.14-.1l.89-2.2v2a.27.27,0,0,0,.26.27.26.26,0,0,0,.26-.27V57.84A.43.43,0,0,0,96.15,57.41ZM120.71,29.8c-.39-1.33-1.77-2.48-3-3.49l-.15-.12-.86-.72a55,55,0,0,0-9.21-6.68,31.59,31.59,0,0,0-7.66-2.36l-1.68-.38-2.24-.56c-1.43-.37-2.9-.74-4.34-1a8,8,0,0,0,4.73-4c1.08-2.28.56-4.75-1.23-5.88A4.75,4.75,0,0,0,92.56,4h0A18,18,0,0,0,87.5,5c-.54.17-1,.34-1.45.44A50,50,0,0,1,78.2,6.9,22.57,22.57,0,0,1,75.85,7a45.88,45.88,0,0,1-6.45-.58,46.4,46.4,0,0,0-6.35-.57,22.93,22.93,0,0,0-3.15.21A27.48,27.48,0,0,0,53.16,8l-.55.22c-2.13.82-4.18,1.64-6.27,2.51a59.06,59.06,0,0,0-11.61,6.69l-1.27.94a.71.71,0,0,0,.43,1.28,1.85,1.85,0,0,0,.84-.46l.85-.64A57.87,57.87,0,0,1,46.88,12c1.95-.8,4-1.62,6.24-2.49a27.91,27.91,0,0,1,7-2.07,21.4,21.4,0,0,1,2.95-.2c4.28,0,8.19,1.16,12.8,1.16.81,0,1.63,0,2.48-.12A51.13,51.13,0,0,0,86.4,6.83c1.61-.42,4.16-1.48,6.16-1.48a3.42,3.42,0,0,1,1.79.43c1.18.74,1.47,2.47.7,4.09-2.2,4.66-9.7,4.43-17.3,4.82-3.58.19-9.59.19-12.16,1.36-1.09.51-1.09,1.37.1,1.37a3.59,3.59,0,0,0,.84-.11c5.17-1.22,11.18-1.19,16.83-1.44.91,0,4.16-.34,4.68-.34h.07c3,0,6.61,1.15,9.75,1.89s6.55,1.34,9,2.62c3.44,1.79,6.79,4.7,9.82,7.23,1,.86,2.4,2,2.69,2.93.53,1.82-.44,3.46-2.23,3.56h-.21c-1.57,0-2.72-1-3.76-1.68s-2.34-1.54-3.27-2.2c-2.1-1.5-4.4-3.57-6.78-4.2A34.13,34.13,0,0,0,98.53,25a21.26,21.26,0,0,0-2.68-.26c-.88,0-1.62.15-1.65.67-.09,1.28,3.35,1.11,4.25,1.22a35.88,35.88,0,0,1,4.2.52,14.34,14.34,0,0,1,4.09,2.41c2.42,1.66,5.11,3.28,7.72,5.24,1.09.83,2.79,2.21,2.65,3.52a2.88,2.88,0,0,1-2.65,2.35l-.54,0c-2.16,0-3.77-1.48-5-2.23C105.1,36,101.55,33.24,95.17,33l-1,0c-1.34,0-1.94.17-1.94.86s.57.64,1.32.64l1.17,0h.2c4.11.08,7.57,1.86,10.41,3.56,1.57.94,5.84,3.38,3.5,5.87a4,4,0,0,1-2.69.76q-.34,0-.69,0c-2.69-.25-4.74-1.77-7.25-2.83a31.7,31.7,0,0,0-3.74-1.26,13.48,13.48,0,0,0-2.9-.61c-.6,0-.92.19-.88.66.06.73,1.48.83,3,1.21s5.75,1.82,6.78,2.93a2.53,2.53,0,0,1,.58,2.41c-.32.85-1.24,1.13-2.32,1.13a12.8,12.8,0,0,1-3.41-.6L91,46.39a1.53,1.53,0,0,0-.29-.07A.71.71,0,0,0,90,47a.68.68,0,0,0,.46.64L94.88,49a13.81,13.81,0,0,0,3.81.66c2.49,0,3.35-1.27,3.63-2a3.51,3.51,0,0,0,0-2.35,11.2,11.2,0,0,0,3,.73c.27,0,.55,0,.82,0a5.45,5.45,0,0,0,3.72-1.21,3.53,3.53,0,0,0,1-3,3.63,3.63,0,0,0-.16-.65,6.93,6.93,0,0,0,3.18.82,5.32,5.32,0,0,0,.69,0,4.29,4.29,0,0,0,3.9-3.59A4.28,4.28,0,0,0,117,35.17h.19a3.81,3.81,0,0,0,3-1.6A4.35,4.35,0,0,0,120.71,29.8ZM92.41,53.12a1.8,1.8,0,0,0-.84.46l-.85.64a57.87,57.87,0,0,1-11.3,6.52c-2,.8-4,1.62-6.24,2.49a27.91,27.91,0,0,1-7,2.07,21.4,21.4,0,0,1-3,.2c-4.28,0-8.19-1.16-12.8-1.16-.81,0-1.63,0-2.48.12a51.13,51.13,0,0,0-8.07,1.47c-1.61.42-4.16,1.48-6.16,1.48A3.33,3.33,0,0,1,32,67c-1.18-.73-1.47-2.46-.7-4.08,2.2-4.66,9.7-4.43,17.3-4.82,3.58-.19,9.59-.19,12.16-1.36,1.09-.51,1.09-1.37-.1-1.37a3.59,3.59,0,0,0-.84.11c-5.17,1.22-11.18,1.19-16.83,1.44-.91,0-4.16.34-4.68.34h-.07c-3,0-6.61-1.15-9.75-1.89s-6.55-1.34-9-2.62C16,50.92,12.65,48,9.62,45.49c-1-.86-2.4-2-2.69-2.93C6.4,40.74,7.37,39.1,9.15,39h.22c1.57,0,2.72,1,3.76,1.68s2.34,1.54,3.27,2.2c2.1,1.5,4.4,3.57,6.78,4.2a34.13,34.13,0,0,0,4.59.68,21.26,21.26,0,0,0,2.68.26c.88,0,1.62-.15,1.65-.67.09-1.28-3.35-1.11-4.25-1.22a35.88,35.88,0,0,1-4.2-.52,14.34,14.34,0,0,1-4.09-2.41c-2.42-1.67-5.11-3.28-7.72-5.24-1.1-.83-2.79-2.22-2.65-3.52a2.88,2.88,0,0,1,2.65-2.35l.54,0c2.16,0,3.77,1.48,5,2.23,3.86,2.46,7.41,5.24,13.79,5.45l1,0c1.35,0,2-.17,1.94-.86s-.56-.64-1.32-.64l-1.16,0h-.2C27.26,38.18,23.8,36.4,21,34.7c-1.57-.94-5.84-3.38-3.5-5.87a4,4,0,0,1,2.69-.76q.34,0,.69,0c2.69.25,4.74,1.77,7.25,2.83a31.7,31.7,0,0,0,3.74,1.26,13.48,13.48,0,0,0,2.9.61c.6,0,.92-.19.88-.66-.06-.73-1.48-.83-3-1.21S26.9,29.1,25.87,28a2.51,2.51,0,0,1-.58-2.41c.32-.84,1.24-1.12,2.32-1.12a12.8,12.8,0,0,1,3.41.6l4.27,1.31a1.53,1.53,0,0,0,.29.07.7.7,0,0,0,.7-.71.67.67,0,0,0-.45-.64l-4.41-1.37a13.79,13.79,0,0,0-3.81-.67c-2.49,0-3.35,1.28-3.63,2a3.45,3.45,0,0,0,0,2.35,11.2,11.2,0,0,0-3-.73c-.27,0-.55,0-.82,0a5.44,5.44,0,0,0-3.72,1.21,3.49,3.49,0,0,0-1,2.94,3.53,3.53,0,0,0,.16.66,6.81,6.81,0,0,0-3.18-.82,5.32,5.32,0,0,0-.69,0,4.29,4.29,0,0,0-3.9,3.59,4.28,4.28,0,0,0,1.48,3.31h-.2a3.85,3.85,0,0,0-3,1.61A4.35,4.35,0,0,0,5.59,43c.39,1.33,1.77,2.48,3,3.49l.15.12.86.72A55,55,0,0,0,18.79,54a32,32,0,0,0,7.66,2.36l1.68.38c.72.17,1.45.36,2.23.56,1.44.37,2.91.74,4.35,1a7.93,7.93,0,0,0-4.73,4c-1.08,2.28-.57,4.75,1.23,5.88a4.75,4.75,0,0,0,2.53.64h0a18,18,0,0,0,5.06-1.08c.54-.18,1-.34,1.45-.44a50,50,0,0,1,7.85-1.43,22.57,22.57,0,0,1,2.35-.11,45.88,45.88,0,0,1,6.45.58,46.4,46.4,0,0,0,6.35.57,22.93,22.93,0,0,0,3.15-.21,27.48,27.48,0,0,0,6.74-1.93l.55-.22C75.82,63.72,77.87,62.9,80,62a59.06,59.06,0,0,0,11.61-6.69l1.27-.94a.71.71,0,0,0-.43-1.28Z"/>
  <g>
    <path class="cls-2" d="M139.92,36.47h6.78v8.47a18.62,18.62,0,0,1-6.07.94,7.34,7.34,0,0,1-5.61-2.1,8.44,8.44,0,0,1-2-6,7.9,7.9,0,0,1,2.17-5.92,8.33,8.33,0,0,1,6.08-2.11,13.23,13.23,0,0,1,2.8.28,11.25,11.25,0,0,1,2.29.71L145,34.06a8.3,8.3,0,0,0-3.73-.84,3.51,3.51,0,0,0-2.87,1.21,5.18,5.18,0,0,0-1,3.45,5.32,5.32,0,0,0,.92,3.36A3.17,3.17,0,0,0,141,42.39a7.88,7.88,0,0,0,1.74-.18V39.75h-2.81Z"/>
    <path class="cls-2" d="M158.35,45.67H149V30h9.33v3.41h-5.08v2.47H158v3.41h-4.7v3h5.08Z"/>
    <path class="cls-2" d="M175.17,45.67h-5.56L163.87,34.6h-.1q.21,2.61.21,4v7.08h-3.76V30h5.54l5.72,10.92h.06c-.1-1.59-.15-2.86-.15-3.82V30h3.78Z"/>
    <path class="cls-2" d="M184.61,45.67h-4.24V33.43h-3.83V30h11.9v3.47h-3.83Z"/>
    <path class="cls-2" d="M189.8,45.67V30h4.25V42.24h6v3.43Z"/>
    <path class="cls-2" d="M211.05,45.67h-9.32V30h9.32v3.41H206v2.47h4.71v3.41H206v3h5.08Z"/>
    <path class="cls-2" d="M231.09,37.48a8.1,8.1,0,0,1-2.17,6.06,8.29,8.29,0,0,1-6.08,2.13h-5.08V30h5.43A8.2,8.2,0,0,1,229,31.9,7.3,7.3,0,0,1,231.09,37.48Zm-4.41.15a5,5,0,0,0-.85-3.2,3.16,3.16,0,0,0-2.59-1H222v8.8H223a3.44,3.44,0,0,0,2.83-1.12A5.46,5.46,0,0,0,226.68,37.63Z"/>
    <path class="cls-2" d="M242.35,45.67H233V30h9.33v3.41h-5.08v2.47H242v3.41h-4.7v3h5.08Z"/>
    <path class="cls-2" d="M259.17,45.67h-5.56L247.87,34.6h-.1q.21,2.61.21,4v7.08h-3.76V30h5.54l5.71,10.92h.07c-.1-1.59-.15-2.86-.15-3.82V30h3.78Z"/>
    <path class="cls-2" d="M268.61,45.67h-4.24V33.43h-3.83V30h11.9v3.47h-3.83Z"/>
    <path class="cls-2" d="M283.44,45.67l-.78-2.94h-5.1l-.79,2.94H272.1l5.13-15.77h5.66l5.19,15.77Zm-1.66-6.42-.67-2.58c-.16-.58-.35-1.32-.58-2.23s-.37-1.56-.44-1.95c-.07.36-.2,1-.38,1.8s-.62,2.49-1.27,5Z"/>
    <path class="cls-2" d="M288.9,45.67V30h4.24V42.24h6.05v3.43Z"/>
  </g>
</svg>
